# xmcd
#
# Track frame offsets:
# 150
# 9354
# 29190
# 48177
# 64863
# 74621
# 85726
# 101661
# 116134
# 131808
# 147624
# 163959
# 179717
#
# Disc length: 2596 seconds
#
#
# Revision: 2
# Processed by: cddbd v1.4PL0 Copyright (c) Steve Scherf et al.
# Submitted via: FreeRIP 2.30 
#
DISCID=cb0a220d
DTITLE=DOIS A UM - DOIS A UM ao vivo
DYEAR=2000
DGENRE=Sertanejo
TTITLE0=Dois a um - Abertura
TTITLE1=Dois a um - Amor perfeito
TTITLE2=Dois a um - Mãe Lua
TTITLE3=Dois a um - Meu Amor (My Love)
TTITLE4=Dois a um - Falso Coração (Blame it on my Heart)
TTITLE5=Dois a um - Osso do Peito
TTITLE6=Dois a um - Telefone Mudo
TTITLE7=Dois a um - Espinhos da Vida
TTITLE8=Dois a um - Horas de amor
TTITLE9=Dois a um - Uma pra mim, uma pra tu
TTITLE10=Dois a um - Chique Demais
TTITLE11=Dois a um - Dois amigos (Bônus)
TTITLE12=Dois a um - More than words (Bônus track)
EXTD=
EXTT0=
EXTT1=
EXTT2=
EXTT3=
EXTT4=
EXTT5=
EXTT6=
EXTT7=
EXTT8=
EXTT9=
EXTT10=
EXTT11=
EXTT12=
PLAYORDER=
